<mxfile host="app.diagrams.net" modified="2022-03-28T23:20:55.447Z" agent="5.0 (Windows NT 10.0; Win64; x64) AppleWebKit/537.36 (KHTML, like Gecko) Chrome/99.0.4844.82 Safari/537.36" etag="Pi-p2bLkd6REBvAHWT5n" version="17.1.3" type="github">
  <diagram id="x2OHzrO9V7N0m4RuFsu1" name="Página-1">
    <mxGraphModel dx="1021" dy="2905" grid="1" gridSize="10" guides="1" tooltips="1" connect="1" arrows="1" fold="1" page="1" pageScale="1" pageWidth="827" pageHeight="1169" math="0" shadow="0">
      <root>
        <mxCell id="0" />
        <mxCell id="1" parent="0" />
        <mxCell id="jwSWIXeNUk4ajDS6AV_Z-2" value="&lt;p style=&quot;margin: 0in ; font-family: &amp;#34;calibri&amp;#34; ; font-size: 11.0pt&quot;&gt;Componentes de uma classe&lt;/p&gt;&lt;div&gt;&lt;br&gt;&lt;/div&gt;&lt;br&gt;&lt;p style=&quot;margin: 0in ; font-family: &amp;#34;calibri&amp;#34; ; font-size: 11.0pt&quot;&gt;Visibilidade:&lt;/p&gt;&lt;br&gt;&lt;p style=&quot;margin: 0in ; font-family: &amp;#34;calibri&amp;#34; ; font-size: 11.0pt&quot;&gt;Especifica como os&lt;br&gt;atributos e operações podem ser utilizados por outras classes, há quatro tipos&lt;br&gt;de visibilidade:&lt;/p&gt;&lt;br&gt;&lt;p style=&quot;margin: 0in ; font-family: &amp;#34;calibri&amp;#34; ; font-size: 11.0pt&quot;&gt;1 - Público:&lt;/p&gt;&lt;br&gt;&lt;p style=&quot;margin: 0in ; font-family: &amp;#34;calibri&amp;#34; ; font-size: 11.0pt&quot;&gt;&amp;nbsp;&amp;nbsp;&amp;nbsp; Qualquer classe externa pode acessar um&lt;br&gt;atributo ou operação especificada. Representado pelo &quot;+&quot;&lt;/p&gt;&lt;br&gt;&lt;p style=&quot;margin: 0in ; font-family: &amp;#34;calibri&amp;#34; ; font-size: 11.0pt&quot;&gt;2 - Protegido:&lt;/p&gt;&lt;br&gt;&lt;p style=&quot;margin: 0in ; font-family: &amp;#34;calibri&amp;#34; ; font-size: 11.0pt&quot;&gt;&amp;nbsp;&amp;nbsp;&amp;nbsp; Qualquer descendente da classe é capaz de&lt;br&gt;acessar seus membros. É privado, porém, é público para as classes&lt;br&gt;&quot;amigas&quot;. Representado pelo &quot;#&quot;&lt;/p&gt;&lt;br&gt;&lt;p style=&quot;margin: 0in ; font-family: &amp;#34;calibri&amp;#34; ; font-size: 11.0pt&quot;&gt;3 - Privado:&lt;/p&gt;&lt;br&gt;&lt;p style=&quot;margin: 0in ; font-family: &amp;#34;calibri&amp;#34; ; font-size: 11.0pt&quot;&gt;&amp;nbsp;&amp;nbsp;&amp;nbsp; Apenas a própria classe pode ter acesso a&lt;br&gt;membros privados. Representado &quot;-&quot;&lt;/p&gt;&lt;br&gt;&lt;p style=&quot;margin: 0in ; font-family: &amp;#34;calibri&amp;#34; ; font-size: 11.0pt&quot;&gt;4 - Pacote:&lt;/p&gt;&lt;br&gt;&lt;p style=&quot;margin: 0in ; font-family: &amp;#34;calibri&amp;#34; ; font-size: 11.0pt&quot;&gt;&amp;nbsp;&amp;nbsp;&amp;nbsp; Apenas classes declaradas no mesmo pacote&lt;br&gt;têm acesso ao membro. Representado pelo &quot;~&quot;&lt;/p&gt;&lt;br&gt;&lt;br&gt;&lt;p style=&quot;margin: 0in ; font-family: &amp;#34;calibri&amp;#34; ; font-size: 11.0pt&quot;&gt;Quando o enunciado&lt;br&gt;não cita a visibilidade, ela deve ser considerada pública.&lt;/p&gt;&lt;br&gt;&lt;br&gt;&lt;p style=&quot;margin: 0in ; font-family: &amp;#34;calibri&amp;#34; ; font-size: 11.0pt&quot;&gt;Relacionamentos entre classes&lt;/p&gt;&lt;br&gt;&lt;p style=&quot;margin: 0in ; font-family: &amp;#34;calibri&amp;#34; ; font-size: 11.0pt&quot;&gt;Dependência:&lt;/p&gt;&lt;br&gt;&lt;p style=&quot;margin: 0in ; margin-left: 0.375in ; font-family: &amp;#34;calibri&amp;#34; ; font-size: 11.0pt&quot;&gt;É um relacionamento de utilização, especificando que uma alteração na&lt;br&gt;especificação de um item poderá alterar outro item que a utilize, mas não&lt;br&gt;necessariamente o inverso.&lt;/p&gt;&lt;br&gt;&lt;p style=&quot;margin: 0in ; margin-left: 0.375in ; font-family: &amp;#34;calibri&amp;#34; ; font-size: 11.0pt&quot;&gt;É representada graficamente por uma linha tracejada, apontando o item que o outro&lt;br&gt;depende.&lt;/p&gt;&lt;p style=&quot;margin: 0in ; margin-left: 0.375in ; font-family: &amp;#34;calibri&amp;#34; ; font-size: 11.0pt&quot;&gt;São lidas como &quot;...usa um...&quot;&lt;/p&gt;&lt;p style=&quot;margin: 0in ; margin-left: 0.375in ; font-family: &amp;#34;calibri&amp;#34; ; font-size: 11.0pt&quot;&gt;&lt;br&gt;&lt;/p&gt;&lt;p style=&quot;margin: 0in ; margin-left: 0.375in ; font-family: &amp;#34;calibri&amp;#34; ; font-size: 11.0pt&quot;&gt;NOTA FISCAL&amp;nbsp; &amp;nbsp; &amp;nbsp; &amp;nbsp; &amp;nbsp; &amp;nbsp; &amp;nbsp; &amp;nbsp; &amp;nbsp; &amp;nbsp; &amp;nbsp; &amp;nbsp; &amp;nbsp; &amp;nbsp; &amp;nbsp; &amp;nbsp;CLIENTE&lt;/p&gt;&lt;p style=&quot;margin: 0in ; margin-left: 0.375in ; font-family: &amp;#34;calibri&amp;#34; ; font-size: 11.0pt&quot;&gt;TURMA&amp;nbsp; &amp;nbsp; &amp;nbsp; &amp;nbsp; &amp;nbsp; &amp;nbsp; &amp;nbsp; &amp;nbsp; &amp;nbsp; &amp;nbsp; &amp;nbsp; &amp;nbsp; &amp;nbsp; &amp;nbsp; &amp;nbsp; &amp;nbsp; &amp;nbsp; &amp;nbsp; &amp;nbsp; &amp;nbsp; &amp;nbsp;ALUNOS&lt;/p&gt;&lt;p style=&quot;margin: 0in ; margin-left: 0.375in ; font-family: &amp;#34;calibri&amp;#34; ; font-size: 11.0pt&quot;&gt;&lt;br&gt;&lt;/p&gt;&lt;p style=&quot;margin: 0in ; margin-left: 0.375in ; font-family: &amp;#34;calibri&amp;#34; ; font-size: 11.0pt&quot;&gt;&lt;br&gt;&lt;/p&gt;" style="text;html=1;align=left;verticalAlign=middle;resizable=0;points=[];autosize=1;strokeColor=none;fillColor=none;" vertex="1" parent="1">
          <mxGeometry x="10" y="-2240" width="550" height="720" as="geometry" />
        </mxCell>
        <mxCell id="jwSWIXeNUk4ajDS6AV_Z-4" value="" style="endArrow=classic;dashed=1;html=1;endFill=1;" edge="1" parent="1">
          <mxGeometry width="50" height="50" relative="1" as="geometry">
            <mxPoint x="140" y="-1520" as="sourcePoint" />
            <mxPoint x="200" y="-1520" as="targetPoint" />
          </mxGeometry>
        </mxCell>
        <mxCell id="jwSWIXeNUk4ajDS6AV_Z-5" value="" style="endArrow=classic;dashed=1;html=1;endFill=1;" edge="1" parent="1">
          <mxGeometry width="50" height="50" relative="1" as="geometry">
            <mxPoint x="140" y="-1499.9999999999998" as="sourcePoint" />
            <mxPoint x="200.00000000000023" y="-1499.9999999999998" as="targetPoint" />
          </mxGeometry>
        </mxCell>
        <mxCell id="jwSWIXeNUk4ajDS6AV_Z-6" value="&lt;p style=&quot;margin: 0in ; font-family: &amp;#34;calibri&amp;#34; ; font-size: 11.0pt&quot;&gt;Associação:&lt;/p&gt;&lt;br&gt;&lt;br&gt;&lt;p style=&quot;margin: 0in ; margin-left: 0.375in ; font-family: &amp;#34;calibri&amp;#34; ; font-size: 11.0pt&quot;&gt;São relacionamentos onde uma classe retém relação com a outra classe por um&lt;br&gt;determinado período de tempo.&lt;/p&gt;&lt;br&gt;&lt;p style=&quot;margin: 0in ; margin-left: 0.375in ; font-family: &amp;#34;calibri&amp;#34; ; font-size: 11.0pt&quot;&gt;Um dos objetos pode ser destruído sem necessariamente destruir o outro.&lt;/p&gt;&lt;br&gt;&lt;p style=&quot;margin: 0in ; margin-left: 0.375in ; font-family: &amp;#34;calibri&amp;#34; ; font-size: 11.0pt&quot;&gt;São representadas graficamente por uma linha contínua que liga dois objetos.&lt;/p&gt;&lt;p style=&quot;margin: 0in ; margin-left: 0.375in ; font-family: &amp;#34;calibri&amp;#34; ; font-size: 11.0pt&quot;&gt;São lidas como &quot;...tem um...&quot; /&amp;nbsp; &quot;...existe um...&quot;&lt;/p&gt;&lt;br&gt;&lt;br&gt;&lt;p style=&quot;margin: 0in ; margin-left: 0.375in ; font-family: &amp;#34;calibri&amp;#34; ; font-size: 11.0pt&quot;&gt;&amp;nbsp;&lt;/p&gt;&lt;br&gt;&lt;br&gt;&lt;div style=&quot;direction: ltr&quot;&gt;&lt;/div&gt;&lt;br&gt;&lt;p style=&quot;margin: 0in ; font-family: &amp;#34;calibri&amp;#34; ; font-size: 11.0pt&quot;&gt;Agregação&lt;/p&gt;&lt;br&gt;&lt;br&gt;&lt;p style=&quot;margin: 0in ; margin-left: 0.375in ; font-family: &amp;#34;calibri&amp;#34; ; font-size: 11.0pt&quot;&gt;É como uma associação, com uma relação mais forte, implicando em propriedadE&lt;/p&gt;&lt;p style=&quot;margin: 0in ; margin-left: 0.375in ; font-family: &amp;#34;calibri&amp;#34; ; font-size: 11.0pt&quot;&gt;&lt;br&gt;&lt;/p&gt;&lt;span style=&quot;font-family: &amp;#34;calibri&amp;#34; ; font-size: 11pt&quot;&gt;&lt;span style=&quot;white-space: pre&quot;&gt;	&lt;/span&gt;&amp;nbsp; &amp;nbsp;O&amp;nbsp;&lt;/span&gt;&lt;span style=&quot;font-family: &amp;#34;calibri&amp;#34; ; font-size: 11pt&quot;&gt;objeto possuído pode ser compartilhado com outras classes, porém quando o&lt;/span&gt;&lt;span style=&quot;font-family: &amp;#34;calibri&amp;#34; ; font-size: 11pt&quot;&gt;&lt;br&gt;&lt;/span&gt;&lt;p style=&quot;margin: 0in ; margin-left: 0.375in ; font-family: &amp;#34;calibri&amp;#34; ; font-size: 11.0pt&quot;&gt;objeto possuidor é destruído, o objeto possuído perde parte da razão de sua&lt;br&gt;existência&lt;/p&gt;&lt;p style=&quot;margin: 0in ; margin-left: 0.375in ; font-family: &amp;#34;calibri&amp;#34; ; font-size: 11.0pt&quot;&gt;&lt;br&gt;&lt;/p&gt;&lt;p style=&quot;margin: 0in ; margin-left: 0.375in ; font-family: &amp;#34;calibri&amp;#34; ; font-size: 11.0pt&quot;&gt;São representadas graficamente por uma linha continua entre as classes que&lt;br&gt;participam da relação. Na extremidade de cada classe possuidora, coloca-se uma&lt;br&gt;forma de diamante e do lado da classe possuída.&lt;/p&gt;&lt;p style=&quot;margin: 0in ; margin-left: 0.375in ; font-family: &amp;#34;calibri&amp;#34; ; font-size: 11.0pt&quot;&gt;São lidas como &quot;...possui uma...&quot;&lt;/p&gt;" style="text;html=1;align=left;verticalAlign=middle;resizable=0;points=[];autosize=1;strokeColor=none;fillColor=none;" vertex="1" parent="1">
          <mxGeometry x="10" y="-1450" width="540" height="410" as="geometry" />
        </mxCell>
        <mxCell id="jwSWIXeNUk4ajDS6AV_Z-8" value="Composição:&lt;br&gt;" style="text;html=1;align=center;verticalAlign=middle;resizable=0;points=[];autosize=1;strokeColor=none;fillColor=none;" vertex="1" parent="1">
          <mxGeometry x="5" y="-380" width="90" height="20" as="geometry" />
        </mxCell>
      </root>
    </mxGraphModel>
  </diagram>
</mxfile>
